<?xml version="1.0" encoding="UTF-8"?>
<svg version="1.1" xmlns="http://www.w3.org/2000/svg" width="512" height="512">
<path d="M0 0 C2.6551711 0.03084854 5.31035146 0.06077185 7.96553421 0.09059906 C109.03981017 1.24360104 109.03981017 1.24360104 145.25944901 35.28133392 C165.74749073 56.5235367 175.83851747 86.19860768 175.54826736 115.41512299 C174.60730867 147.50607679 161.66541503 176.68140115 138.37273026 198.75008392 C114.1434189 220.85979864 82.41794576 228.95487547 50.24382401 227.78914642 C28.16644635 226.37392991 6.70229667 215.96769629 -9.80305099 201.59383392 C-10.62289474 200.89516205 -11.44273849 200.19649017 -12.28742599 199.47664642 C-44.67392233 171.21389652 -61.98923686 129.08303075 -66.49055099 86.90633392 C-66.8686235 80.47910138 -66.80305099 74.03217664 -66.80305099 67.59383392 C-47.33305099 67.59383392 -27.86305099 67.59383392 -7.80305099 67.59383392 C-6.81305099 78.48383392 -6.81305099 78.48383392 -5.80305099 89.59383392 C-1.58208822 111.00014516 5.77296241 130.93381447 20.19694901 147.59383392 C20.96007401 148.62508392 21.72319901 149.65633392 22.50944901 150.71883392 C30.81932611 159.60846989 42.66570019 167.06388873 55.03288651 167.83211517 C72.51319584 168.26181606 88.10681921 164.10652761 101.13054276 151.85164642 C112.96788932 138.91783486 115.92894741 123.65318695 115.32878494 106.6856308 C114.58852447 94.94016461 109.05594361 82.50024846 100.19694901 74.59383392 C87.78583396 65.35902321 75.38750981 61.88888204 60.11833572 61.07601166 C59.33220335 61.03372405 58.54607098 60.99143644 57.73611641 60.94786739 C48.31334311 60.46604636 38.88740326 60.24756793 29.45476151 60.06649017 C28.42812519 60.04607225 27.40148888 60.02565434 26.34374237 60.00461769 C-8.21168787 59.33351234 -42.77720054 59.25560855 -77.33783031 59.07642424 C-87.01223566 59.02612337 -96.68661578 58.97156016 -106.36099648 58.9167527 C-126.17499194 58.80459185 -145.98901171 58.69798439 -165.80305099 58.59383392 C-165.80305099 39.45383392 -165.80305099 20.31383392 -165.80305099 0.59383392 C-110.51785414 -0.49552956 -55.2897973 -0.64558227 0 0 Z " fill="#A78BFA" transform="translate(336.80305099487305,284.40616607666016)"/>
<path d="M0 0 C19.47 0 38.94 0 59 0 C59.02202606 35.01635362 59.04049766 70.03270054 59.05106533 105.049059 C59.05231611 109.17862073 59.05361042 113.30818244 59.05493164 117.43774414 C59.05519395 118.25990089 59.05545626 119.08205764 59.05572652 119.92912824 C59.06008344 133.25919924 59.06797111 146.58926595 59.0771528 159.9193344 C59.08648872 173.58683895 59.09205548 187.25434123 59.09408849 200.92184883 C59.09546385 209.36234777 59.09981511 217.80283457 59.10791647 226.24332977 C59.11318317 232.02328495 59.11480447 237.80323381 59.11350138 243.58319121 C59.11285788 246.92299263 59.11441525 250.26275556 59.11920547 253.60255623 C59.12413526 257.21494884 59.12300094 260.82728832 59.12025452 264.43968201 C59.12316736 265.50677995 59.1260802 266.57387789 59.12908131 267.67331213 C59.12709026 268.63323696 59.12509921 269.59316179 59.12304783 270.58217525 C59.12361741 271.83468276 59.12361741 271.83468276 59.1241985 273.11249346 C59 275 59 275 58 276 C38.86 276 19.72 276 0 276 C0 184.92 0 93.84 0 0 Z " fill="#6F41C0" transform="translate(259,0)"/>
<path d="M0 0 C16.17 0 32.34 0 49 0 C49 94.71 49 189.42 49 287 C32.83 287 16.66 287 0 287 C0 192.29 0 97.58 0 0 Z " fill="#6F42C1" transform="translate(113,196)"/>
<path d="M0 0 C82.5 0 165 0 250 0 C250 16.17 250 32.34 250 49 C167.5 49 85 49 0 49 C0 32.83 0 16.66 0 0 Z " fill="#6F42C0" transform="translate(0,138)"/>
<path d="M0 0 C51.81 0 103.62 0 157 0 C157 16.17 157 32.34 157 49 C105.19 49 53.38 49 0 49 C0 32.83 0 16.66 0 0 Z " fill="#6F42C0" transform="translate(326,138)"/>
<path d="M0 0 C16.17 0 32.34 0 49 0 C49 42.57 49 85.14 49 129 C32.83 129 16.66 129 0 129 C0 86.43 0 43.86 0 0 Z " fill="#6F42C1" transform="translate(113,0)"/>
<path d="M0 0 C1.21720469 19.66537384 1.09905823 39.30569987 1 59 C-34.01156082 60.08455651 -68.97019428 60.07732849 -104 60 C-104 40.86 -104 21.72 -104 2 C-99.6063259 1.12126518 -95.61344565 0.83005686 -91.17480469 0.79467773 C-90.01498077 0.77982834 -90.01498077 0.77982834 -88.83172607 0.76467896 C-86.27847314 0.73313955 -83.72520244 0.70830283 -81.171875 0.68359375 C-79.38128219 0.66298456 -77.5906938 0.64198716 -75.80010986 0.62062073 C-71.0786122 0.56545013 -66.35707014 0.5160872 -61.63549805 0.46777344 C-57.82749425 0.42782146 -54.01954439 0.38370328 -50.21158981 0.33933926 C-45.61503498 0.28591127 -41.01845796 0.23453719 -36.421875 0.18359375 C-35.56677086 0.17403593 -34.71166672 0.16447811 -33.83065033 0.15463066 C-22.55329648 0.03067969 -11.27802635 -0.02397723 0 0 Z " fill="#6F42C1" transform="translate(104,285)"/>
</svg>
